<svg width="125" height="119" viewBox="0 0 125 119" fill="none" xmlns="http://www.w3.org/2000/svg">
<path fill-rule="evenodd" clip-rule="evenodd" d="M63.2195 102.998C57.5382 103.084 52.3667 99.8499 50.1301 94.8132C47.8939 89.7759 49.0368 83.935 53.023 80.0302C57.0091 76.1255 63.047 74.9306 68.3058 77.0076C73.5639 79.0839 76.9989 84.0191 76.9995 89.4987C77.0293 93.0508 75.5938 96.4684 73.0096 99.0001C70.4248 101.532 66.9039 102.97 63.2195 102.998Z" fill="#A2AAFF" stroke="#A2AAFF" stroke-width="5" stroke-linecap="round" stroke-linejoin="round"/>
<path d="M52.142 19.4731C54.9734 19.4731 57.2689 17.3564 57.2689 14.7454C57.2689 12.1342 54.9734 10.0176 52.142 10.0176V19.4731ZM11.1269 10.0176C8.29541 10.0176 6 12.1342 6 14.7454C6 17.3564 8.29541 19.4731 11.1269 19.4731V10.0176ZM52.142 38.3843C54.9734 38.3843 57.2689 36.2676 57.2689 33.6565C57.2689 31.0454 54.9734 28.9287 52.142 28.9287V38.3843ZM11.1269 28.9287C8.29541 28.9287 6 31.0454 6 33.6565C6 36.2676 8.29541 38.3843 11.1269 38.3843V28.9287ZM38.4703 57.2956C41.3018 57.2956 43.5972 55.1788 43.5972 52.5678C43.5972 49.9568 41.3018 47.84 38.4703 47.84V57.2956ZM11.1269 47.84C8.29541 47.84 6 49.9568 6 52.5678C6 55.1788 8.29541 57.2956 11.1269 57.2956V47.84ZM69.3342 89.3375C69.3342 91.9485 71.6297 94.0653 74.4611 94.0653C77.2925 94.0653 79.588 91.9485 79.588 89.3375H69.3342ZM79.588 36.8084C79.588 34.1973 77.2925 32.0806 74.4611 32.0806C71.6297 32.0806 69.3342 34.1973 69.3342 36.8084H79.588ZM74.4611 36.8084H69.3342C69.3342 38.1485 69.9508 39.4257 71.0308 40.3223C72.1109 41.2189 73.5533 41.6506 74.9984 41.5101L74.4611 36.8084ZM74.4611 27.3528H79.588C79.588 27.2675 79.5852 27.1822 79.5804 27.0971L74.4611 27.3528ZM88.1328 14.7454L87.8552 19.4662C87.9475 19.4708 88.0405 19.4731 88.1328 19.4731V14.7454ZM96.0282 14.7454V19.4732L96.0521 19.4731L96.0282 14.7454ZM97.1629 34.6021L96.6482 29.8981L96.6256 29.9003L97.1629 34.6021ZM52.142 10.0176H11.1269V19.4731H52.142V10.0176ZM52.142 28.9287H11.1269V38.3843H52.142V28.9287ZM38.4703 47.84H11.1269V57.2956H38.4703V47.84ZM79.588 89.3375V36.8084H69.3342V89.3375H79.588ZM79.588 36.8084V27.3528H69.3342V36.8084H79.588ZM79.5804 27.0971C79.4594 25.0411 80.2927 23.0348 81.8711 21.5788L74.621 14.8927C70.983 18.2476 69.0635 22.8709 69.3417 27.6085L79.5804 27.0971ZM81.8711 21.5788C83.4502 20.1229 85.6261 19.3548 87.8552 19.4662L88.4103 10.0245C83.2725 9.76781 78.2591 11.5378 74.621 14.8927L81.8711 21.5788ZM88.1328 19.4731L96.0282 19.4732V10.0176H88.1328V19.4731ZM96.0521 19.4731C99.0763 19.46 101.579 21.6389 101.738 24.4238L111.978 23.9262C111.531 16.1023 104.5 9.98075 96.0043 10.0176L96.0521 19.4731ZM101.738 24.4238C101.897 27.2087 99.6567 29.618 96.6482 29.8981L97.6777 39.306C106.131 38.5192 112.425 31.7501 111.978 23.9262L101.738 24.4238ZM96.6256 29.9003L73.9238 32.1066L74.9984 41.5101L97.7002 39.3038L96.6256 29.9003Z" fill="#A2AAFF"/>
</svg>
